<svg width="191" height="125" viewBox="0 0 191 125" fill="none" xmlns="http://www.w3.org/2000/svg">
<path d="M6.336 16.16C5.248 16.16 4.27733 15.9147 3.424 15.424C2.58133 14.9333 1.92 14.256 1.44 13.392C0.96 12.5173 0.72 11.5093 0.72 10.368C0.72 9.55733 0.864 8.80533 1.152 8.112C1.45067 7.408 1.856 6.79467 2.368 6.272C2.89067 5.74933 3.49867 5.344 4.192 5.056C4.896 4.768 5.65333 4.624 6.464 4.624C7.264 4.624 8.032 4.79467 8.768 5.136C9.51467 5.46667 10.112 5.91467 10.56 6.48L9.104 8.096C8.72 7.69067 8.30933 7.376 7.872 7.152C7.43467 6.928 6.96 6.816 6.448 6.816C5.81867 6.816 5.248 6.96533 4.736 7.264C4.23467 7.56267 3.83467 7.984 3.536 8.528C3.23733 9.06133 3.088 9.68 3.088 10.384C3.088 11.1093 3.232 11.744 3.52 12.288C3.81867 12.8213 4.23467 13.2373 4.768 13.536C5.312 13.824 5.936 13.968 6.64 13.968C7.16267 13.968 7.65333 13.8613 8.112 13.648C8.57067 13.4347 8.96533 13.1573 9.296 12.816L10.416 14.624C10.16 14.912 9.81333 15.1733 9.376 15.408C8.93867 15.6427 8.45333 15.8293 7.92 15.968C7.39733 16.096 6.86933 16.16 6.336 16.16ZM12.1516 16V4.16H14.3116V8.656C14.5996 8.28267 14.9783 7.97867 15.4476 7.744C15.9276 7.49867 16.429 7.376 16.9516 7.376C18.893 7.376 19.8636 8.528 19.8636 10.832V16H17.6876V10.992C17.6876 9.78667 17.181 9.20533 16.1676 9.248C15.645 9.248 15.2076 9.408 14.8556 9.728C14.5143 10.048 14.3436 10.4427 14.3436 10.912V16H12.1516ZM25.2263 16.16C24.5223 16.16 23.8876 15.968 23.3223 15.584C22.7569 15.2 22.3036 14.6773 21.9622 14.016C21.6316 13.3547 21.4663 12.6027 21.4663 11.76C21.4663 10.896 21.6316 10.1387 21.9622 9.488C22.3036 8.82667 22.7623 8.30933 23.3383 7.936C23.9249 7.56267 24.5863 7.376 25.3223 7.376C25.9196 7.376 26.4423 7.49867 26.8903 7.744C27.3383 7.97867 27.6956 8.288 27.9623 8.672V7.552H30.1383V16H27.9463V14.864C27.6476 15.2373 27.2583 15.5467 26.7783 15.792C26.3089 16.0373 25.7916 16.16 25.2263 16.16ZM25.8183 14.256C26.4689 14.256 26.9969 14.0267 27.4023 13.568C27.8076 13.1093 28.0103 12.5067 28.0103 11.76C28.0103 11.0133 27.8076 10.4107 27.4023 9.952C26.9969 9.49333 26.4689 9.264 25.8183 9.264C25.1783 9.264 24.6556 9.49333 24.2503 9.952C23.8556 10.4107 23.6583 11.0133 23.6583 11.76C23.6583 12.5067 23.8556 13.1093 24.2503 13.568C24.6556 14.0267 25.1783 14.256 25.8183 14.256ZM26.9863 6.464L23.9143 4.816L25.0343 3.296L27.6583 5.44L26.9863 6.464ZM36.3373 16.16C35.4733 16.16 34.7053 15.9733 34.0333 15.6C33.3613 15.216 32.8333 14.6933 32.4493 14.032C32.0653 13.3707 31.8733 12.6133 31.8733 11.76C31.8733 10.9173 32.0653 10.1653 32.4493 9.504C32.8333 8.84267 33.3613 8.32533 34.0333 7.952C34.7053 7.568 35.4733 7.376 36.3373 7.376C37.1799 7.376 37.9373 7.568 38.6093 7.952C39.2813 8.32533 39.8093 8.84267 40.1933 9.504C40.5773 10.1653 40.7693 10.9173 40.7693 11.76C40.7693 12.6133 40.5773 13.3707 40.1933 14.032C39.8093 14.6933 39.2813 15.216 38.6093 15.6C37.9373 15.9733 37.1799 16.16 36.3373 16.16ZM36.3373 14.256C36.7639 14.256 37.1479 14.1493 37.4893 13.936C37.8306 13.712 38.0919 13.4133 38.2733 13.04C38.4653 12.6667 38.5613 12.24 38.5613 11.76C38.5613 11.28 38.4653 10.8533 38.2733 10.48C38.0919 10.1067 37.8306 9.81333 37.4893 9.6C37.1479 9.38667 36.7639 9.28 36.3373 9.28C35.8999 9.28 35.5106 9.38667 35.1693 9.6C34.8279 9.81333 34.5613 10.1067 34.3693 10.48C34.1773 10.8533 34.0813 11.28 34.0813 11.76C34.0813 12.24 34.1773 12.6667 34.3693 13.04C34.5613 13.4133 34.8279 13.712 35.1693 13.936C35.5106 14.1493 35.8999 14.256 36.3373 14.256ZM47.3231 16V7.552H49.4351L49.4671 8.752C49.7658 8.34667 50.1391 8.02133 50.5871 7.776C51.0351 7.52 51.5045 7.392 51.9951 7.392C52.6031 7.392 53.1098 7.52533 53.5151 7.792C53.9205 8.048 54.2511 8.45867 54.5071 9.024C54.8165 8.52267 55.2325 8.128 55.7551 7.84C56.2885 7.54133 56.8378 7.392 57.4031 7.392C59.3338 7.392 60.2991 8.55467 60.2991 10.88V16H58.1071V11.04C58.1071 9.86667 57.6271 9.28 56.6671 9.28C56.1551 9.28 55.7285 9.44 55.3871 9.76C55.0565 10.08 54.8911 10.48 54.8911 10.96V16H52.6991V11.008C52.6991 10.4533 52.5765 10.0267 52.3311 9.728C52.0858 9.42933 51.7338 9.28 51.2751 9.28C50.7738 9.28 50.3525 9.44 50.0111 9.76C49.6805 10.08 49.5151 10.4693 49.5151 10.928V16H47.3231ZM65.3921 16.16C64.4641 16.16 63.7335 15.8613 63.2001 15.264C62.6775 14.656 62.4161 13.824 62.4161 12.768V7.552H64.5921V12.368C64.5921 12.976 64.7361 13.456 65.0241 13.808C65.3228 14.1493 65.7281 14.32 66.2401 14.32C66.7521 14.32 67.1735 14.16 67.5041 13.84C67.8455 13.52 68.0161 13.1093 68.0161 12.608V7.552C68.7415 7.552 69.2428 7.408 69.5201 7.12C69.8081 6.82133 69.9521 6.35733 69.9521 5.728H71.6321C71.6321 6.32533 71.5148 6.86933 71.2801 7.36C71.0561 7.85067 70.6935 8.208 70.1921 8.432V16H68.1121L68.0641 14.8C67.7868 15.2053 67.4081 15.536 66.9281 15.792C66.4588 16.0373 65.9468 16.16 65.3921 16.16ZM67.2321 6.464L64.1601 4.816L65.2801 3.296L67.9041 5.44L67.2321 6.464ZM72.4798 16V7.552H74.5918L74.6238 8.688C74.9118 8.304 75.2958 7.98933 75.7758 7.744C76.2558 7.49867 76.7571 7.376 77.2798 7.376C79.2211 7.376 80.1918 8.528 80.1918 10.832V16H78.0158V10.992C78.0158 9.78667 77.5091 9.20533 76.4958 9.248C75.9731 9.248 75.5358 9.408 75.1838 9.728C74.8424 10.048 74.6718 10.4427 74.6718 10.912V16H72.4798ZM86.2104 19.68C85.5597 19.68 84.909 19.5787 84.2584 19.376C83.6184 19.184 83.0957 18.9333 82.6904 18.624L83.4584 17.04C83.789 17.2853 84.1784 17.4773 84.6264 17.616C85.085 17.7547 85.549 17.824 86.0184 17.824C87.6717 17.824 88.4984 17.0453 88.4984 15.488V14.832C88.2317 15.1733 87.8584 15.4613 87.3784 15.696C86.909 15.92 86.413 16.032 85.8904 16.032C85.1117 16.032 84.413 15.8507 83.7944 15.488C83.1864 15.1147 82.7064 14.608 82.3544 13.968C82.0024 13.3173 81.8264 12.576 81.8264 11.744C81.8264 10.9013 81.997 10.1493 82.3384 9.488C82.6904 8.82667 83.1704 8.30933 83.7784 7.936C84.3864 7.56267 85.069 7.376 85.8264 7.376C86.3917 7.376 86.9144 7.49333 87.3944 7.728C87.885 7.952 88.2744 8.224 88.5624 8.544L88.5944 7.552H90.6904V15.376C90.6904 16.752 90.2904 17.8133 89.4904 18.56C88.701 19.3067 87.6077 19.68 86.2104 19.68ZM86.2744 14.24C86.9677 14.24 87.5224 14.0107 87.9384 13.552C88.365 13.0933 88.5784 12.496 88.5784 11.76C88.5784 11.0133 88.365 10.4107 87.9384 9.952C87.5117 9.48267 86.957 9.248 86.2744 9.248C85.6024 9.248 85.053 9.48267 84.6264 9.952C84.2104 10.4213 84.0024 11.024 84.0024 11.76C84.0024 12.496 84.2104 13.0933 84.6264 13.552C85.053 14.0107 85.6024 14.24 86.2744 14.24ZM102.608 16.16C102.075 16.16 101.563 16.0533 101.072 15.84C100.592 15.616 100.208 15.3387 99.9203 15.008L99.8723 15.968H97.7923V4.16H99.9843V8.544C100.262 8.21333 100.63 7.936 101.088 7.712C101.558 7.488 102.048 7.376 102.56 7.376C103.296 7.376 103.952 7.56267 104.528 7.936C105.115 8.30933 105.574 8.82667 105.904 9.488C106.246 10.1493 106.416 10.9067 106.416 11.76C106.416 12.6133 106.251 13.3707 105.92 14.032C105.59 14.6933 105.136 15.216 104.56 15.6C103.995 15.9733 103.344 16.16 102.608 16.16ZM102.112 14.288C102.752 14.288 103.275 14.0533 103.68 13.584C104.086 13.1147 104.288 12.5067 104.288 11.76C104.288 11.024 104.086 10.4267 103.68 9.968C103.286 9.49867 102.763 9.264 102.112 9.264C101.451 9.264 100.918 9.49867 100.512 9.968C100.107 10.4267 99.9043 11.024 99.9043 11.76C99.9043 12.5067 100.107 13.1147 100.512 13.584C100.918 14.0533 101.451 14.288 102.112 14.288ZM111.32 16.16C110.616 16.16 109.981 15.968 109.416 15.584C108.851 15.2 108.397 14.6773 108.056 14.016C107.725 13.3547 107.56 12.6027 107.56 11.76C107.56 10.896 107.725 10.1387 108.056 9.488C108.397 8.82667 108.856 8.30933 109.432 7.936C110.019 7.56267 110.68 7.376 111.416 7.376C112.013 7.376 112.536 7.49867 112.984 7.744C113.432 7.97867 113.789 8.288 114.056 8.672V7.552H116.232V16H114.04V14.864C113.741 15.2373 113.352 15.5467 112.872 15.792C112.403 16.0373 111.885 16.16 111.32 16.16ZM111.912 14.256C112.563 14.256 113.091 14.0267 113.496 13.568C113.901 13.1093 114.104 12.5067 114.104 11.76C114.104 11.0133 113.901 10.4107 113.496 9.952C113.091 9.49333 112.563 9.264 111.912 9.264C111.272 9.264 110.749 9.49333 110.344 9.952C109.949 10.4107 109.752 11.0133 109.752 11.76C109.752 12.5067 109.949 13.1093 110.344 13.568C110.749 14.0267 111.272 14.256 111.912 14.256ZM112.2 19.456C111.763 19.456 111.421 19.3493 111.176 19.136C110.941 18.9227 110.824 18.624 110.824 18.24C110.824 17.8667 110.947 17.568 111.192 17.344C111.437 17.12 111.773 17.008 112.2 17.008C112.637 17.008 112.973 17.1147 113.208 17.328C113.453 17.5413 113.576 17.8453 113.576 18.24C113.576 18.6027 113.453 18.896 113.208 19.12C112.963 19.344 112.627 19.456 112.2 19.456ZM118.511 16V7.552H120.623L120.655 8.688C120.943 8.304 121.327 7.98933 121.807 7.744C122.287 7.49867 122.788 7.376 123.311 7.376C125.252 7.376 126.223 8.528 126.223 10.832V16H124.047V10.992C124.047 9.78667 123.54 9.20533 122.527 9.248C122.004 9.248 121.567 9.408 121.215 9.728C120.874 10.048 120.703 10.4427 120.703 10.912V16H118.511ZM136.589 16.16C135.843 16.16 135.176 15.9733 134.589 15.6C134.003 15.216 133.539 14.6933 133.197 14.032C132.867 13.3707 132.701 12.6187 132.701 11.776C132.701 10.9227 132.867 10.1653 133.197 9.504C133.539 8.84267 134.003 8.32533 134.589 7.952C135.176 7.568 135.843 7.376 136.589 7.376C137.101 7.376 137.587 7.47733 138.045 7.68C138.515 7.88267 138.893 8.144 139.181 8.464V6.704H137.517V5.008H139.181V4.16H141.373V5.008H142.333V6.704H141.373V16H139.293L139.261 14.992C138.984 15.3227 138.605 15.6 138.125 15.824C137.645 16.048 137.133 16.16 136.589 16.16ZM137.069 14.336C137.72 14.336 138.248 14.1013 138.653 13.632C139.059 13.152 139.261 12.5333 139.261 11.776C139.261 11.008 139.059 10.3893 138.653 9.92C138.248 9.44 137.72 9.2 137.069 9.2C136.419 9.2 135.891 9.44 135.485 9.92C135.08 10.3893 134.877 11.008 134.877 11.776C134.877 12.5333 135.08 13.152 135.485 13.632C135.891 14.1013 136.419 14.336 137.069 14.336ZM147.589 16.16C146.682 16.16 145.888 15.9733 145.205 15.6C144.522 15.2267 143.989 14.7147 143.605 14.064C143.232 13.4133 143.045 12.6667 143.045 11.824C143.045 10.9493 143.226 10.1813 143.589 9.52C143.962 8.848 144.469 8.32 145.109 7.936C145.76 7.552 146.506 7.36 147.349 7.36C148.106 7.36 148.784 7.54667 149.381 7.92C149.989 8.28267 150.458 8.77867 150.789 9.408C151.13 10.0373 151.29 10.7573 151.269 11.568L151.253 12.256H145.173C145.29 12.864 145.578 13.344 146.037 13.696C146.506 14.048 147.098 14.224 147.813 14.224C148.197 14.224 148.544 14.1653 148.853 14.048C149.173 13.9307 149.514 13.7227 149.877 13.424L150.933 14.896C150.474 15.3013 149.946 15.616 149.349 15.84C148.762 16.0533 148.176 16.16 147.589 16.16ZM147.365 9.248C146.16 9.248 145.434 9.792 145.189 10.88H149.189V10.816C149.157 10.3573 148.965 9.984 148.613 9.696C148.272 9.39733 147.856 9.248 147.365 9.248ZM150.245 4L149.317 3.344L150.741 0.831999L152.261 1.92L150.245 4ZM145.301 6.352L144.613 5.632L146.613 3.872H148.069L150.069 5.632L149.381 6.352L147.333 5.344L145.301 6.352ZM152.964 16V7.552H155.076L155.108 8.688C155.396 8.304 155.78 7.98933 156.26 7.744C156.74 7.49867 157.241 7.376 157.764 7.376C159.705 7.376 160.676 8.528 160.676 10.832V16H158.5V10.992C158.5 9.78667 157.993 9.20533 156.98 9.248C156.457 9.248 156.02 9.408 155.668 9.728C155.327 10.048 155.156 10.4427 155.156 10.912V16H152.964ZM170.371 16L166.819 7.552H169.219L171.283 13.248L173.427 7.552H175.763L172.035 16H170.371ZM180.853 16.16C179.989 16.16 179.221 15.9733 178.549 15.6C177.877 15.216 177.349 14.6933 176.965 14.032C176.581 13.3707 176.389 12.6133 176.389 11.76C176.389 10.9173 176.581 10.1653 176.965 9.504C177.349 8.84267 177.877 8.32533 178.549 7.952C179.221 7.568 179.989 7.376 180.853 7.376C181.045 7.376 181.232 7.392 181.413 7.424C181.605 7.44533 181.776 7.46667 181.925 7.488C182.032 7.52 182.128 7.54667 182.213 7.568C182.309 7.57867 182.389 7.584 182.453 7.584C183.317 7.584 183.749 6.96533 183.749 5.728H185.445C185.445 6.368 185.322 6.944 185.077 7.456C184.842 7.95733 184.458 8.31467 183.925 8.528C184.352 8.92267 184.682 9.39733 184.917 9.952C185.162 10.496 185.285 11.0987 185.285 11.76C185.285 12.6133 185.093 13.3707 184.709 14.032C184.325 14.6933 183.797 15.216 183.125 15.6C182.453 15.9733 181.696 16.16 180.853 16.16ZM180.853 14.256C181.28 14.256 181.664 14.1493 182.005 13.936C182.346 13.712 182.608 13.4133 182.789 13.04C182.981 12.6667 183.077 12.24 183.077 11.76C183.077 11.28 182.981 10.8533 182.789 10.48C182.608 10.1067 182.346 9.81333 182.005 9.6C181.664 9.38667 181.28 9.28 180.853 9.28C180.416 9.28 180.026 9.38667 179.685 9.6C179.344 9.81333 179.077 10.1067 178.885 10.48C178.693 10.8533 178.597 11.28 178.597 11.76C178.597 12.24 178.693 12.6667 178.885 13.04C179.077 13.4133 179.344 13.712 179.685 13.936C180.026 14.1493 180.416 14.256 180.853 14.256ZM179.637 6.464L178.965 5.456L181.589 3.296L182.709 4.816L179.637 6.464ZM188.339 5.792C187.912 5.792 187.576 5.68533 187.331 5.472C187.096 5.25867 186.979 4.96533 186.979 4.592C186.979 4.22933 187.096 3.936 187.331 3.712C187.576 3.488 187.912 3.376 188.339 3.376C188.766 3.376 189.096 3.48267 189.331 3.696C189.566 3.90933 189.683 4.208 189.683 4.592C189.683 4.944 189.56 5.232 189.315 5.456C189.08 5.68 188.755 5.792 188.339 5.792ZM187.251 16V7.552H189.443V16H187.251Z" fill="url(#paint0_linear)"/>
<path d="M38.959 119V108.336H42.4453C43.6025 108.336 44.4717 108.575 45.0527 109.054C45.6387 109.532 45.9316 110.24 45.9316 111.178C45.9316 111.676 45.79 112.118 45.5068 112.503C45.2236 112.884 44.8379 113.18 44.3496 113.39C44.9258 113.551 45.3799 113.858 45.7119 114.312C46.0488 114.762 46.2173 115.299 46.2173 115.924C46.2173 116.881 45.9072 117.633 45.2871 118.18C44.667 118.727 43.7905 119 42.6577 119H38.959ZM40.3652 114.012V117.85H42.687C43.3413 117.85 43.8564 117.682 44.2324 117.345C44.6133 117.003 44.8037 116.534 44.8037 115.938C44.8037 114.654 44.1055 114.012 42.709 114.012H40.3652ZM40.3652 112.884H42.4893C43.1045 112.884 43.5952 112.73 43.9614 112.423C44.3325 112.115 44.5181 111.698 44.5181 111.17C44.5181 110.584 44.3472 110.16 44.0054 109.896C43.6636 109.627 43.1436 109.493 42.4453 109.493H40.3652V112.884ZM51.3809 119.146C50.3066 119.146 49.4326 118.795 48.7588 118.092C48.085 117.384 47.748 116.439 47.748 115.257V115.008C47.748 114.222 47.897 113.521 48.1948 112.906C48.4976 112.286 48.9175 111.803 49.4546 111.456C49.9966 111.104 50.5825 110.929 51.2124 110.929C52.2427 110.929 53.0435 111.268 53.6147 111.947C54.186 112.625 54.4717 113.597 54.4717 114.862V115.426H49.103C49.1226 116.207 49.3496 116.839 49.7842 117.323C50.2236 117.801 50.7803 118.041 51.4541 118.041C51.9326 118.041 52.3379 117.943 52.6699 117.748C53.002 117.552 53.2925 117.293 53.5415 116.971L54.3691 117.616C53.7051 118.636 52.709 119.146 51.3809 119.146ZM51.2124 112.042C50.6655 112.042 50.2065 112.242 49.8354 112.643C49.4644 113.038 49.2349 113.595 49.147 114.312H53.1167V114.21C53.0776 113.521 52.8921 112.989 52.5601 112.613C52.228 112.232 51.7788 112.042 51.2124 112.042ZM62.3599 117.015L64.2056 111.075H65.6558L62.4697 120.223C61.9766 121.542 61.1929 122.201 60.1187 122.201L59.8623 122.179L59.3569 122.083V120.985L59.7231 121.014C60.1821 121.014 60.5386 120.921 60.7925 120.736C61.0513 120.55 61.2637 120.211 61.4297 119.718L61.73 118.912L58.9028 111.075H60.3823L62.3599 117.015ZM66.3955 114.964C66.3955 114.188 66.5469 113.49 66.8496 112.87C67.1572 112.25 67.582 111.771 68.124 111.434C68.6709 111.097 69.2935 110.929 69.9917 110.929C71.0708 110.929 71.9424 111.302 72.6064 112.049C73.2754 112.796 73.6099 113.79 73.6099 115.03V115.125C73.6099 115.897 73.4609 116.59 73.1631 117.206C72.8701 117.816 72.4478 118.292 71.896 118.634C71.3491 118.976 70.7192 119.146 70.0063 119.146C68.9321 119.146 68.0605 118.773 67.3916 118.026C66.7275 117.279 66.3955 116.29 66.3955 115.06V114.964ZM67.7578 115.125C67.7578 116.004 67.9604 116.71 68.3657 117.242C68.7759 117.774 69.3228 118.041 70.0063 118.041C70.6948 118.041 71.2417 117.772 71.647 117.235C72.0522 116.693 72.2549 115.936 72.2549 114.964C72.2549 114.095 72.0474 113.392 71.6323 112.855C71.2222 112.313 70.6753 112.042 69.9917 112.042C69.3228 112.042 68.7832 112.308 68.373 112.84C67.9629 113.373 67.7578 114.134 67.7578 115.125ZM80.2017 118.216C79.6743 118.836 78.9004 119.146 77.8799 119.146C77.0352 119.146 76.3906 118.902 75.9463 118.414C75.5068 117.921 75.2847 117.193 75.2798 116.231V111.075H76.6348V116.195C76.6348 117.396 77.123 117.997 78.0996 117.997C79.1348 117.997 79.8232 117.611 80.165 116.839V111.075H81.52V119H80.231L80.2017 118.216ZM83.5415 121.124L82.7725 120.597C83.2314 119.957 83.4707 119.298 83.4902 118.619V117.396H84.8159V118.458C84.8159 118.951 84.6938 119.444 84.4497 119.938C84.2104 120.431 83.9077 120.826 83.5415 121.124ZM96.9595 115.125C96.9595 116.336 96.6812 117.311 96.1245 118.048C95.5679 118.78 94.8208 119.146 93.8833 119.146C92.8823 119.146 92.1084 118.792 91.5615 118.084L91.4956 119H90.2505V107.75H91.6055V111.947C92.1523 111.268 92.9067 110.929 93.8687 110.929C94.8306 110.929 95.585 111.292 96.1318 112.02C96.6836 112.748 96.9595 113.744 96.9595 115.008V115.125ZM95.6045 114.972C95.6045 114.049 95.4263 113.336 95.0698 112.833C94.7134 112.33 94.2007 112.079 93.5317 112.079C92.6382 112.079 91.9961 112.494 91.6055 113.324V116.751C92.0205 117.582 92.6675 117.997 93.5464 117.997C94.1958 117.997 94.7012 117.745 95.0625 117.242C95.4238 116.739 95.6045 115.982 95.6045 114.972ZM101.962 119.146C100.888 119.146 100.014 118.795 99.3398 118.092C98.666 117.384 98.3291 116.439 98.3291 115.257V115.008C98.3291 114.222 98.478 113.521 98.7759 112.906C99.0786 112.286 99.4985 111.803 100.036 111.456C100.578 111.104 101.164 110.929 101.793 110.929C102.824 110.929 103.625 111.268 104.196 111.947C104.767 112.625 105.053 113.597 105.053 114.862V115.426H99.6841C99.7036 116.207 99.9307 116.839 100.365 117.323C100.805 117.801 101.361 118.041 102.035 118.041C102.514 118.041 102.919 117.943 103.251 117.748C103.583 117.552 103.874 117.293 104.123 116.971L104.95 117.616C104.286 118.636 103.29 119.146 101.962 119.146ZM101.793 112.042C101.247 112.042 100.788 112.242 100.417 112.643C100.045 113.038 99.8159 113.595 99.728 114.312H103.698V114.21C103.659 113.521 103.473 112.989 103.141 112.613C102.809 112.232 102.36 112.042 101.793 112.042ZM115.241 118.216C114.713 118.836 113.939 119.146 112.919 119.146C112.074 119.146 111.43 118.902 110.985 118.414C110.546 117.921 110.324 117.193 110.319 116.231V111.075H111.674V116.195C111.674 117.396 112.162 117.997 113.139 117.997C114.174 117.997 114.862 117.611 115.204 116.839V111.075H116.559V119H115.27L115.241 118.216ZM119.906 111.075L119.95 112.071C120.556 111.31 121.347 110.929 122.323 110.929C123.998 110.929 124.843 111.874 124.857 113.763V119H123.502V113.756C123.498 113.185 123.366 112.762 123.107 112.489C122.853 112.215 122.455 112.079 121.913 112.079C121.474 112.079 121.088 112.196 120.756 112.43C120.424 112.665 120.165 112.972 119.979 113.353V119H118.625V111.075H119.906ZM128.373 119H127.018V111.075H128.373V119ZM126.908 108.973C126.908 108.753 126.974 108.568 127.106 108.417C127.243 108.265 127.443 108.189 127.707 108.189C127.97 108.189 128.17 108.265 128.307 108.417C128.444 108.568 128.512 108.753 128.512 108.973C128.512 109.193 128.444 109.376 128.307 109.522C128.17 109.669 127.97 109.742 127.707 109.742C127.443 109.742 127.243 109.669 127.106 109.522C126.974 109.376 126.908 109.193 126.908 108.973ZM130.219 114.972C130.219 113.727 130.504 112.743 131.076 112.02C131.647 111.292 132.414 110.929 133.375 110.929C134.313 110.929 135.053 111.244 135.595 111.874L135.653 111.075H136.898V122.047H135.543V118.268C134.997 118.854 134.269 119.146 133.361 119.146C132.404 119.146 131.64 118.775 131.068 118.033C130.502 117.286 130.219 116.297 130.219 115.067V114.972ZM131.574 115.125C131.574 116.034 131.764 116.747 132.145 117.264C132.531 117.782 133.048 118.041 133.698 118.041C134.503 118.041 135.119 117.684 135.543 116.971V113.089C135.114 112.391 134.503 112.042 133.712 112.042C133.058 112.042 132.538 112.303 132.152 112.826C131.767 113.343 131.574 114.11 131.574 115.125ZM143.966 118.216C143.439 118.836 142.665 119.146 141.645 119.146C140.8 119.146 140.155 118.902 139.711 118.414C139.271 117.921 139.049 117.193 139.044 116.231V111.075H140.399V116.195C140.399 117.396 140.888 117.997 141.864 117.997C142.899 117.997 143.588 117.611 143.93 116.839V111.075H145.285V119H143.996L143.966 118.216ZM150.639 119.146C149.564 119.146 148.69 118.795 148.017 118.092C147.343 117.384 147.006 116.439 147.006 115.257V115.008C147.006 114.222 147.155 113.521 147.453 112.906C147.755 112.286 148.175 111.803 148.712 111.456C149.254 111.104 149.84 110.929 150.47 110.929C151.5 110.929 152.301 111.268 152.873 111.947C153.444 112.625 153.729 113.597 153.729 114.862V115.426H148.361C148.38 116.207 148.607 116.839 149.042 117.323C149.481 117.801 150.038 118.041 150.712 118.041C151.19 118.041 151.596 117.943 151.928 117.748C152.26 117.552 152.55 117.293 152.799 116.971L153.627 117.616C152.963 118.636 151.967 119.146 150.639 119.146ZM150.47 112.042C149.923 112.042 149.464 112.242 149.093 112.643C148.722 113.038 148.493 113.595 148.405 114.312H152.375V114.21C152.335 113.521 152.15 112.989 151.818 112.613C151.486 112.232 151.037 112.042 150.47 112.042Z" fill="#9A9A9A"/>
<path d="M140.792 91.1687C144.93 91.1687 148.352 89.8063 151.058 87.0815C153.764 84.3568 155.117 80.8373 155.117 76.523V60.0767C155.117 58.3813 153.743 57.0068 152.048 57.0068C150.352 57.0068 148.978 58.3813 148.978 60.0767V76.523C148.978 79.0435 148.171 81.1381 146.556 82.807C144.941 84.476 143.02 85.3104 140.792 85.3104C138.563 85.3104 136.642 84.476 135.027 82.807C133.413 81.1381 132.605 79.0435 132.605 76.523V60.0767C132.605 58.3813 131.231 57.0068 129.535 57.0068C127.84 57.0068 126.466 58.3813 126.466 60.0767V76.523C126.466 80.8373 127.819 84.3568 130.525 87.0815C133.231 89.8063 136.653 91.1687 140.792 91.1687Z" fill="#191919"/>
<path fill-rule="evenodd" clip-rule="evenodd" d="M35.0141 48.7275C35.0141 47.2212 36.2353 46 37.7416 46C39.248 46 40.4692 47.2212 40.4692 48.7275V73.906C40.9581 80.2262 46.2582 85.2225 52.7161 85.2225C59.4959 85.2225 65.0117 79.7189 65.0117 72.9542C65.0117 66.1894 59.4959 60.6858 52.7161 60.6858C52.1892 60.6858 51.6612 60.7183 51.1485 60.7843C49.6676 60.9736 48.3071 59.9222 48.1185 58.4414C47.9298 56.9606 48.9814 55.6063 50.4666 55.4181C51.2048 55.3251 51.9615 55.2775 52.7161 55.2775C62.4847 55.2775 70.4321 63.2072 70.4321 72.9542C70.4321 82.7011 62.4847 90.6308 52.7161 90.6308C46.1303 90.6308 40.3835 87.0191 37.3308 81.6832C35.8987 79.1803 35.0618 76.3019 35.0141 73.23C35.013 73.137 35 73.0472 35 72.9542C35 72.9066 35.0119 72.8622 35.0141 72.8146V48.7275Z" fill="#191919"/>
<path fill-rule="evenodd" clip-rule="evenodd" d="M121.661 48.7275C121.661 47.2212 120.44 46 118.933 46C117.427 46 116.206 47.2212 116.206 48.7275V73.906C115.717 80.2262 110.417 85.2225 103.959 85.2225C97.1792 85.2225 91.6634 79.7189 91.6634 72.9542C91.6634 66.1894 97.1792 60.6858 103.959 60.6858C104.486 60.6858 105.014 60.7183 105.527 60.7843C107.007 60.9736 108.368 59.9222 108.557 58.4414C108.745 56.9606 107.694 55.6063 106.208 55.4181C105.47 55.3251 104.714 55.2775 103.959 55.2775C94.1903 55.2775 86.2429 63.2072 86.2429 72.9542C86.2429 82.7011 94.1903 90.6308 103.959 90.6308C110.545 90.6308 116.292 87.0191 119.344 81.6832C120.776 79.1803 121.613 76.3019 121.661 73.23C121.662 73.137 121.675 73.0472 121.675 72.9542C121.675 72.9066 121.663 72.8622 121.661 72.8146V48.7275Z" fill="#191919"/>
<path fill-rule="evenodd" clip-rule="evenodd" d="M81.4121 52.1232C80.7629 52.8164 79.8992 53.163 78.8209 53.163C77.7426 53.163 76.8734 52.8219 76.2132 52.1397C75.553 51.4355 75.2229 50.5883 75.2229 49.598C75.2229 48.6077 75.553 47.7605 76.2132 47.0563C76.8734 46.3521 77.7426 46 78.8209 46C79.8992 46 80.7629 46.3521 81.4121 47.0563C82.0613 47.7605 82.3859 48.6077 82.3859 49.598C82.3859 50.5883 82.0613 51.43 81.4121 52.1232ZM81.8348 87.6003C81.8348 89.274 80.478 90.6308 78.8043 90.6308C77.1307 90.6308 75.7739 89.274 75.7739 87.6003V60.0504C75.7739 58.3767 77.1307 57.0199 78.8043 57.0199C80.478 57.0199 81.8348 58.3767 81.8348 60.0504V87.6003Z" fill="#191919"/>
<defs>
<linearGradient id="paint0_linear" x1="-21.9392" y1="9.79592" x2="205.196" y2="9.7959" gradientUnits="userSpaceOnUse">
<stop stop-color="#FB8E8C"/>
<stop offset="1" stop-color="#E812A4"/>
</linearGradient>
</defs>
</svg>
