<svg width="24" height="17" viewBox="0 0 24 17" fill="none" xmlns="http://www.w3.org/2000/svg">
<path fill-rule="evenodd" clip-rule="evenodd" d="M18.6543 15.9492C18.9538 16.25 19.4307 16.2723 19.7301 15.9492C20.0517 15.6149 20.0295 15.1692 19.7301 14.8683L5.31242 0.394084C5.01297 0.0932479 4.52499 0.0932479 4.22554 0.394084C3.93719 0.683808 3.93719 1.18521 4.22554 1.47493L18.6543 15.9492ZM12.0001 0.862061C10.5472 0.862061 9.18307 1.09606 7.94092 1.48605L9.24962 2.80087C10.1258 2.55574 11.0463 2.42202 12.0001 2.42202C17.5897 2.42202 22.2698 7.42506 22.2698 8.39445C22.2698 9.07415 20.7948 10.8681 18.488 12.3055L19.6969 13.5201C22.414 11.7261 24.0001 9.41957 24.0001 8.39445C24.0001 6.58936 19.1313 0.862061 12.0001 0.862061ZM16.3807 15.2138C15.0609 15.6595 13.5859 15.9269 11.9999 15.9269C4.97964 15.9269 0 10.1885 0 8.39452C0 7.33596 1.69685 4.94032 4.58038 3.13521L5.81143 4.36089C3.31607 5.8763 1.71904 7.83739 1.71904 8.39452C1.71904 9.59793 6.39923 14.367 11.9999 14.367C13.0868 14.367 14.1182 14.1998 15.0942 13.9213L16.3807 15.2138ZM16.5469 10.1438C16.7576 9.59781 16.8796 9.00725 16.8796 8.3944C16.8796 5.65332 14.717 3.50281 11.9998 3.50281C11.3787 3.50281 10.802 3.61424 10.2586 3.8148L16.5469 10.1438ZM14.0183 12.8404C13.4083 13.1189 12.7318 13.2861 11.9998 13.2861C9.27154 13.2861 7.11999 11.0576 7.10889 8.39448C7.10889 7.65908 7.26416 6.96823 7.55253 6.34424L14.0183 12.8404Z" fill="#C9C9C9"/>
</svg>
